<svg width="150" height="67" viewBox="0 0 150 67" fill="none" xmlns="http://www.w3.org/2000/svg">
<g clip-path="url(#clip0_677_53)">
<path d="M77.6055 36.6737H70.3474L80.2109 11.9895H87.6551L97.5186 36.6737H90.2606L88.5856 32.2658H79.2804L77.6055 36.6737ZM80.9554 27.6816H86.9107L83.933 19.3948L80.9554 27.6816ZM119.867 36.3211C114.334 36.7911 109.743 37.0263 106.095 37.0263C103.664 37.0263 101.877 36.4858 100.736 35.4042C99.5941 34.3228 99.0235 32.6302 99.0235 30.3263V19.0421C99.0235 16.5737 99.6067 14.787 100.773 13.6821C101.964 12.5537 103.862 11.9895 106.468 11.9895H119.867V16.9263H107.956C106.468 16.9263 105.723 17.6316 105.723 19.0421V30.3263C105.723 30.867 105.884 31.302 106.207 31.6311C106.554 31.9367 106.989 32.0895 107.51 32.0895C108.031 32.0895 108.602 32.0895 109.222 32.0895C109.842 32.066 110.487 32.0425 111.157 32.019C111.827 31.9955 112.497 31.972 113.167 31.9484C113.862 31.9249 114.743 31.8779 115.81 31.8074C116.902 31.7369 118.254 31.6546 119.867 31.5606V36.3211ZM136.621 36.6737H129.921V16.9263H122.105V11.9895H144.437V16.9263H136.621V36.6737Z" fill="white"/>
<path d="M71.2482 51.8368V46.9846H74.6874V47.9296H72.5435V49.0792H74.4119V50.0243H72.5435V51.8368H71.2482ZM76.1208 51.8932C75.8825 51.8932 75.6815 51.8579 75.5178 51.7874C75.354 51.7169 75.2301 51.6016 75.1456 51.4418C75.0663 51.2821 75.0265 51.0726 75.0265 50.8142C75.0265 50.5416 75.0588 50.3251 75.1232 50.1653C75.1928 50.0006 75.3145 49.8832 75.488 49.8127C75.6618 49.7422 75.9075 49.7069 76.225 49.7069C76.2696 49.7069 76.3318 49.7094 76.4111 49.7139C76.4956 49.7139 76.5897 49.7164 76.6939 49.721C76.7982 49.721 76.9024 49.7235 77.0066 49.728C77.1108 49.728 77.2054 49.7305 77.2895 49.7351V49.6011C77.2895 49.4646 77.2772 49.3588 77.2523 49.2837C77.2325 49.2086 77.1905 49.1543 77.1257 49.1215C77.0662 49.0838 76.9746 49.0626 76.8503 49.058C76.7263 49.0485 76.5626 49.0439 76.359 49.0439C76.2451 49.0439 76.1185 49.0464 75.9793 49.051C75.8453 49.0556 75.7113 49.0626 75.5773 49.0722C75.4485 49.0767 75.3391 49.0838 75.2498 49.0933V48.2964C75.4534 48.2636 75.6815 48.2375 75.9346 48.2188C76.193 48.1952 76.4632 48.1835 76.7461 48.1835C77.0639 48.1835 77.3267 48.2022 77.5351 48.2399C77.7488 48.2777 77.92 48.3362 78.0488 48.4163C78.1779 48.4914 78.2721 48.588 78.3317 48.7054C78.3964 48.8228 78.4385 48.9618 78.4582 49.1215C78.4783 49.2813 78.488 49.4625 78.488 49.6646V51.8368H77.3416L77.3118 51.4136H77.2523C77.1581 51.5547 77.049 51.6605 76.9247 51.731C76.8008 51.8015 76.6694 51.8463 76.5302 51.865C76.3913 51.8837 76.2547 51.8932 76.1208 51.8932ZM76.6865 51.0892C76.7758 51.0892 76.8529 51.0846 76.9173 51.0751C76.9869 51.061 77.0438 51.0398 77.0885 51.0116C77.1384 50.9788 77.1778 50.9386 77.2076 50.8917C77.2325 50.8399 77.2523 50.7764 77.2672 50.7013C77.282 50.6262 77.2895 50.5366 77.2895 50.4333V50.2993H76.5972C76.4732 50.2993 76.3791 50.3088 76.3143 50.3275C76.2499 50.3416 76.2052 50.3794 76.1803 50.4404C76.1606 50.4968 76.1505 50.586 76.1505 50.7084C76.1505 50.8117 76.1632 50.8917 76.1877 50.9482C76.2127 51.0046 76.2622 51.0423 76.3366 51.061C76.4163 51.0797 76.5328 51.0892 76.6865 51.0892ZM80.7916 51.8932C80.4737 51.8932 80.2132 51.8675 80.01 51.8156C79.8064 51.7592 79.6452 51.6816 79.5261 51.5829C79.407 51.4796 79.3199 51.3526 79.2655 51.202C79.2108 51.0515 79.1762 50.8801 79.1613 50.6872C79.1464 50.4897 79.139 50.2736 79.139 50.0384C79.139 49.8081 79.1464 49.5965 79.1613 49.4036C79.1762 49.2107 79.2134 49.0394 79.273 48.8888C79.3325 48.7336 79.4193 48.6042 79.5335 48.5009C79.6526 48.3976 79.8112 48.32 80.01 48.2682C80.2132 48.2117 80.4715 48.1835 80.7841 48.1835C80.9825 48.1835 81.1809 48.193 81.3797 48.2117C81.5829 48.2304 81.7642 48.2586 81.9231 48.2964V49.0933C81.8237 49.0792 81.6946 49.0676 81.536 49.058C81.3819 49.0485 81.2382 49.0439 81.1042 49.0439C80.9304 49.0439 80.7938 49.058 80.6948 49.0863C80.5954 49.1099 80.521 49.1568 80.4715 49.2273C80.4216 49.2933 80.387 49.392 80.3673 49.5235C80.3524 49.6551 80.3449 49.8268 80.3449 50.0384C80.3449 50.2499 80.3524 50.4238 80.3673 50.5603C80.387 50.6918 80.4216 50.793 80.4715 50.8635C80.521 50.9295 80.598 50.9739 80.7023 50.9975C80.8065 51.0211 80.9427 51.0328 81.1117 51.0328C81.2308 51.0328 81.3648 51.0282 81.5137 51.0187C81.6674 51.0092 81.8137 50.9975 81.9529 50.9834V51.7804C81.7891 51.8132 81.603 51.8393 81.3946 51.8579C81.1861 51.8816 80.9851 51.8932 80.7916 51.8932ZM82.5473 47.5065V46.5967H83.7756V47.5065H82.5473ZM82.5622 51.8368V48.2399H83.7681V51.8368H82.5622ZM84.5435 51.8368V46.5967H85.7494V51.8368H84.5435ZM86.5098 47.5065V46.5967H87.7381V47.5065H86.5098ZM86.5247 51.8368V48.2399H87.7307V51.8368H86.5247ZM88.8853 51.8368V49.1004H88.193V48.2399H88.8853V47.1962H90.0912V48.2399H90.9175V49.1004H90.0912V51.8368H88.8853ZM92.9889 53.2896C92.8351 53.2896 92.6762 53.285 92.5124 53.2755C92.3487 53.2709 92.1923 53.2614 92.0435 53.2473C91.8994 53.2332 91.7729 53.2191 91.6638 53.205V52.4222C91.8175 52.4222 91.9541 52.4222 92.0732 52.4222C92.1972 52.4267 92.3088 52.4292 92.4082 52.4292C92.5124 52.4292 92.6092 52.4292 92.6985 52.4292C92.9319 52.4292 93.1154 52.4197 93.2494 52.401C93.3834 52.3823 93.4802 52.347 93.5397 52.2952C93.5993 52.2434 93.6365 52.1637 93.6514 52.0554C93.6663 51.9521 93.6737 51.8156 93.6737 51.6464V51.3572H93.6142C93.5446 51.47 93.4578 51.5617 93.3536 51.6323C93.2494 51.6982 93.1277 51.7476 92.9889 51.7804C92.8549 51.8086 92.706 51.8227 92.5422 51.8227C92.2891 51.8227 92.0855 51.7945 91.9318 51.738C91.7781 51.677 91.6612 51.5875 91.5819 51.4701C91.5026 51.3477 91.4505 51.202 91.4256 51.0328C91.4007 50.8589 91.3884 50.6565 91.3884 50.4263V48.2399H92.5794V50.0807C92.5794 50.2736 92.5843 50.4263 92.5943 50.5391C92.6092 50.6474 92.6341 50.7271 92.6688 50.7789C92.7034 50.8307 92.7555 50.8635 92.8251 50.8776C92.8947 50.8917 92.9889 50.8988 93.108 50.8988C93.2371 50.8988 93.3387 50.8872 93.4132 50.8635C93.4925 50.8353 93.5498 50.7905 93.5844 50.7295C93.619 50.6636 93.6413 50.5768 93.6514 50.4686C93.6663 50.3557 93.6737 50.2171 93.6737 50.0525V48.2399H94.8722V51.4348C94.8722 51.7497 94.8547 52.0226 94.8201 52.2529C94.7855 52.4881 94.7085 52.6806 94.5894 52.8312C94.4703 52.9864 94.2815 53.1017 94.0236 53.1768C93.7705 53.2519 93.4255 53.2896 92.9889 53.2896ZM99.3146 51.8932C99.1162 51.8932 98.9003 51.8886 98.6669 51.8791C98.4387 51.8696 98.2128 51.8555 97.9895 51.8368C97.771 51.8181 97.5752 51.7991 97.4014 51.7804V50.8706C97.5849 50.8847 97.7688 50.8988 97.9523 50.9129C98.141 50.927 98.3196 50.9365 98.4882 50.9411C98.6569 50.9457 98.7983 50.9482 98.9126 50.9482C99.1508 50.9482 99.332 50.9411 99.456 50.927C99.5799 50.9083 99.6719 50.8822 99.7314 50.8494C99.7712 50.8166 99.7984 50.7814 99.8133 50.7436C99.833 50.7059 99.8457 50.6615 99.8505 50.6096C99.8554 50.5578 99.858 50.4993 99.858 50.4333C99.858 50.3346 99.8505 50.257 99.8356 50.2006C99.8256 50.1396 99.801 50.0923 99.7612 50.0595C99.7266 50.0267 99.6719 50.0031 99.5974 49.989C99.523 49.9703 99.4262 49.9537 99.3071 49.9396L98.2575 49.8127C98.0539 49.7891 97.8879 49.7422 97.7587 49.6716C97.6296 49.5965 97.528 49.4978 97.4535 49.3754C97.3791 49.2531 97.327 49.1099 97.2972 48.9452C97.2674 48.7759 97.2525 48.588 97.2525 48.381C97.2525 48.0612 97.302 47.8073 97.4014 47.6193C97.5008 47.4264 97.637 47.2808 97.8108 47.182C97.9895 47.0787 98.1953 47.0103 98.4287 46.9775C98.6669 46.9447 98.9248 46.9282 99.2029 46.9282C99.4013 46.9282 99.6075 46.9352 99.8207 46.9493C100.034 46.9588 100.235 46.9751 100.424 46.9987C100.612 47.0174 100.769 47.041 100.893 47.0692V47.9578C100.769 47.9391 100.622 47.925 100.454 47.9155C100.29 47.9014 100.119 47.8919 99.9399 47.8873C99.7612 47.8778 99.5926 47.8732 99.4336 47.8732C99.2401 47.8732 99.0864 47.8803 98.9721 47.8944C98.8578 47.9039 98.7685 47.925 98.7041 47.9578C98.6345 47.9956 98.5899 48.0449 98.5701 48.1059C98.5552 48.1669 98.5478 48.2445 98.5478 48.3387C98.5478 48.4561 98.5578 48.5478 98.5776 48.6137C98.5973 48.6747 98.642 48.7171 98.7116 48.7407C98.7812 48.7643 98.8876 48.7855 99.0317 48.8042L100.052 48.917C100.19 48.9311 100.317 48.9547 100.431 48.9875C100.55 49.0203 100.657 49.0722 100.751 49.1427C100.851 49.2132 100.933 49.3144 100.997 49.4459C101.032 49.5069 101.059 49.5824 101.079 49.6716C101.099 49.7563 101.116 49.855 101.131 49.9678C101.146 50.0807 101.153 50.2076 101.153 50.3487C101.153 50.6262 101.123 50.8611 101.064 51.0539C101.004 51.2419 100.92 51.3925 100.811 51.5053C100.702 51.6136 100.57 51.6982 100.416 51.7592C100.263 51.8156 100.091 51.8509 99.9026 51.865C99.7191 51.8837 99.523 51.8932 99.3146 51.8932ZM103.582 51.8932C103.224 51.8932 102.929 51.872 102.696 51.8297C102.462 51.7874 102.276 51.7215 102.137 51.6323C102.003 51.5381 101.902 51.4182 101.832 51.2726C101.768 51.1269 101.725 50.9527 101.706 50.7507C101.691 50.5486 101.683 50.3134 101.683 50.0454C101.683 49.721 101.698 49.4414 101.728 49.2062C101.763 48.9709 101.837 48.7784 101.951 48.6278C102.066 48.4773 102.242 48.3669 102.48 48.2964C102.723 48.2213 103.05 48.1835 103.462 48.1835C103.795 48.1835 104.065 48.2071 104.274 48.254C104.482 48.2964 104.646 48.3644 104.765 48.4586C104.889 48.5478 104.976 48.6656 105.026 48.8112C105.08 48.9568 105.115 49.1332 105.13 49.3402C105.145 49.5422 105.152 49.7774 105.152 50.0454V50.3205H102.867C102.867 50.4802 102.874 50.6096 102.889 50.7084C102.904 50.8025 102.944 50.873 103.008 50.9199C103.073 50.9668 103.172 51 103.306 51.0187C103.44 51.0328 103.626 51.0398 103.864 51.0398C103.959 51.0398 104.07 51.0374 104.199 51.0328C104.329 51.0282 104.463 51.0211 104.601 51.0116C104.745 51.0021 104.879 50.9929 105.003 50.9834V51.7733C104.894 51.7969 104.76 51.8181 104.601 51.8368C104.448 51.8555 104.281 51.8696 104.103 51.8791C103.924 51.8886 103.75 51.8932 103.582 51.8932ZM104.028 49.8479V49.7351C104.028 49.5658 104.018 49.4318 103.998 49.3331C103.984 49.2344 103.954 49.1614 103.909 49.1145C103.869 49.0626 103.812 49.0298 103.738 49.0157C103.663 49.0016 103.569 48.9946 103.455 48.9946C103.326 48.9946 103.222 49.0041 103.142 49.0228C103.068 49.0369 103.011 49.0697 102.971 49.1215C102.931 49.1734 102.904 49.2485 102.889 49.3472C102.874 49.4459 102.867 49.5754 102.867 49.7351H104.155L104.028 49.8479ZM105.805 51.8368V48.2399H106.936L106.966 48.8535H107.033C107.103 48.6797 107.189 48.5432 107.294 48.4445C107.403 48.3457 107.534 48.2777 107.688 48.2399C107.842 48.2022 108.02 48.1835 108.224 48.1835V49.2203C107.911 49.2203 107.666 49.258 107.487 49.3331C107.308 49.4082 107.182 49.5376 107.107 49.721C107.033 49.8998 106.996 50.1512 106.996 50.4756V51.8368H105.805ZM109.491 51.8368L108.344 48.2399H109.565L110.272 50.8283H110.347L111.032 48.2399H112.238L111.099 51.8368H109.491ZM112.638 47.5065V46.5967H113.866V47.5065H112.638ZM112.653 51.8368V48.2399H113.859V51.8368H112.653ZM116.16 51.8932C115.842 51.8932 115.582 51.8675 115.379 51.8156C115.175 51.7592 115.014 51.6816 114.895 51.5829C114.776 51.4796 114.689 51.3526 114.634 51.202C114.58 51.0515 114.545 50.8801 114.53 50.6872C114.515 50.4897 114.508 50.2736 114.508 50.0384C114.508 49.8081 114.515 49.5965 114.53 49.4036C114.545 49.2107 114.582 49.0394 114.642 48.8888C114.701 48.7336 114.788 48.6042 114.902 48.5009C115.021 48.3976 115.18 48.32 115.379 48.2682C115.582 48.2117 115.84 48.1835 116.153 48.1835C116.351 48.1835 116.55 48.193 116.748 48.2117C116.952 48.2304 117.133 48.2586 117.292 48.2964V49.0933C117.192 49.0792 117.063 49.0676 116.905 49.058C116.751 49.0485 116.607 49.0439 116.473 49.0439C116.299 49.0439 116.163 49.058 116.064 49.0863C115.964 49.1099 115.89 49.1568 115.84 49.2273C115.79 49.2933 115.756 49.392 115.736 49.5235C115.721 49.6551 115.714 49.8268 115.714 50.0384C115.714 50.2499 115.721 50.4238 115.736 50.5603C115.756 50.6918 115.79 50.793 115.84 50.8635C115.89 50.9295 115.967 50.9739 116.071 50.9975C116.175 51.0211 116.311 51.0328 116.48 51.0328C116.6 51.0328 116.734 51.0282 116.882 51.0187C117.036 51.0092 117.182 50.9975 117.322 50.9834V51.7804C117.158 51.8132 116.972 51.8393 116.763 51.8579C116.555 51.8816 116.354 51.8932 116.16 51.8932ZM119.703 51.8932C119.346 51.8932 119.05 51.872 118.817 51.8297C118.584 51.7874 118.398 51.7215 118.259 51.6323C118.125 51.5381 118.023 51.4182 117.954 51.2726C117.889 51.1269 117.847 50.9527 117.827 50.7507C117.812 50.5486 117.805 50.3134 117.805 50.0454C117.805 49.721 117.82 49.4414 117.849 49.2062C117.884 48.9709 117.958 48.7784 118.073 48.6278C118.187 48.4773 118.363 48.3669 118.601 48.2964C118.844 48.2213 119.172 48.1835 119.584 48.1835C119.916 48.1835 120.187 48.2071 120.395 48.254C120.604 48.2964 120.768 48.3644 120.887 48.4586C121.011 48.5478 121.097 48.6656 121.147 48.8112C121.202 48.9568 121.237 49.1332 121.251 49.3402C121.266 49.5422 121.274 49.7774 121.274 50.0454V50.3205H118.988C118.988 50.4802 118.996 50.6096 119.011 50.7084C119.026 50.8025 119.065 50.873 119.13 50.9199C119.194 50.9668 119.294 51 119.428 51.0187C119.562 51.0328 119.748 51.0398 119.986 51.0398C120.08 51.0398 120.192 51.0374 120.321 51.0328C120.45 51.0282 120.584 51.0211 120.723 51.0116C120.867 51.0021 121.001 50.9929 121.125 50.9834V51.7733C121.015 51.7969 120.881 51.8181 120.723 51.8368C120.569 51.8555 120.403 51.8696 120.224 51.8791C120.045 51.8886 119.872 51.8932 119.703 51.8932ZM120.15 49.8479V49.7351C120.15 49.5658 120.14 49.4318 120.12 49.3331C120.105 49.2344 120.075 49.1614 120.031 49.1145C119.991 49.0626 119.934 49.0298 119.859 49.0157C119.785 49.0016 119.69 48.9946 119.576 48.9946C119.447 48.9946 119.343 49.0041 119.264 49.0228C119.189 49.0369 119.132 49.0697 119.093 49.1215C119.053 49.1734 119.026 49.2485 119.011 49.3472C118.996 49.4459 118.988 49.5754 118.988 49.7351H120.276L120.15 49.8479ZM123.4 51.8932C123.241 51.8932 123.067 51.8886 122.879 51.8791C122.695 51.8696 122.514 51.8579 122.335 51.8438C122.162 51.8297 122.005 51.8132 121.866 51.7945V50.9975C121.946 51.0021 122.035 51.0092 122.134 51.0187C122.238 51.0282 122.345 51.0353 122.454 51.0398C122.564 51.0444 122.668 51.0494 122.767 51.0539C122.871 51.0539 122.966 51.0539 123.05 51.0539C123.283 51.0539 123.45 51.0469 123.549 51.0328C123.653 51.0187 123.718 50.9905 123.742 50.9482C123.772 50.9013 123.787 50.8399 123.787 50.7648C123.787 50.6897 123.777 50.6354 123.757 50.6026C123.742 50.5698 123.708 50.5462 123.653 50.532C123.603 50.5179 123.517 50.5038 123.392 50.4897L122.506 50.3839C122.293 50.3557 122.132 50.2968 122.023 50.2076C121.914 50.1135 121.839 49.989 121.799 49.8338C121.765 49.6741 121.747 49.4883 121.747 49.2767C121.747 49.0274 121.787 48.8324 121.866 48.6913C121.946 48.5457 122.055 48.4374 122.194 48.3669C122.338 48.2918 122.506 48.2424 122.7 48.2188C122.899 48.1952 123.109 48.1835 123.333 48.1835C123.492 48.1835 123.655 48.1881 123.824 48.1976C123.993 48.2071 124.154 48.2213 124.308 48.2399C124.462 48.254 124.589 48.2706 124.688 48.2893V49.0792C124.564 49.0697 124.432 49.0605 124.293 49.051C124.159 49.0415 124.03 49.0344 123.906 49.0298C123.782 49.0253 123.678 49.0228 123.593 49.0228C123.395 49.0228 123.241 49.0274 123.132 49.0369C123.028 49.0464 122.956 49.0697 122.916 49.1074C122.881 49.1451 122.864 49.2062 122.864 49.2908C122.864 49.3567 122.869 49.4082 122.879 49.4459C122.894 49.4787 122.926 49.5024 122.975 49.5165C123.025 49.5306 123.102 49.5447 123.206 49.5588L124.1 49.6646C124.269 49.6833 124.412 49.721 124.531 49.7774C124.65 49.8338 124.74 49.935 124.799 50.0807C124.864 50.2263 124.896 50.445 124.896 50.7366C124.896 51 124.859 51.2091 124.784 51.3643C124.715 51.5148 124.613 51.6298 124.479 51.7098C124.345 51.7849 124.187 51.8343 124.003 51.8579C123.824 51.8816 123.623 51.8932 123.4 51.8932ZM129.466 51.8932C129.084 51.8932 128.762 51.8696 128.499 51.8227C128.236 51.7758 128.017 51.6982 127.844 51.5899C127.67 51.4771 127.534 51.3265 127.434 51.1386C127.34 50.9457 127.273 50.7084 127.233 50.4263C127.199 50.1442 127.181 49.8056 127.181 49.4107C127.181 49.0157 127.199 48.6772 127.233 48.3951C127.273 48.113 127.342 47.8778 127.442 47.6898C127.541 47.497 127.677 47.3467 127.851 47.2385C128.025 47.1256 128.243 47.0456 128.506 46.9987C128.769 46.9518 129.089 46.9282 129.466 46.9282C129.635 46.9282 129.824 46.9352 130.032 46.9493C130.241 46.9634 130.446 46.9821 130.65 47.0057C130.858 47.0294 131.052 47.0576 131.231 47.0904V47.9719C131.062 47.9483 130.893 47.9321 130.724 47.9226C130.561 47.9085 130.409 47.8968 130.27 47.8873C130.132 47.8778 130.017 47.8732 129.928 47.8732C129.66 47.8732 129.439 47.8778 129.265 47.8873C129.092 47.8968 128.95 47.9272 128.841 47.979C128.732 48.0259 128.65 48.1035 128.595 48.2117C128.541 48.32 128.503 48.4727 128.484 48.6702C128.469 48.863 128.461 49.1099 128.461 49.4107C128.461 49.6787 128.466 49.9044 128.476 50.0877C128.491 50.2711 128.518 50.4217 128.558 50.5391C128.603 50.6565 128.662 50.7482 128.737 50.8142C128.816 50.8752 128.918 50.9175 129.042 50.9411C129.171 50.9647 129.328 50.9764 129.511 50.9764C129.571 50.9764 129.635 50.9764 129.705 50.9764C129.774 50.9718 129.841 50.9668 129.906 50.9623C129.97 50.9577 130.025 50.9552 130.069 50.9552V49.9044H129.34V49.0228H131.253V51.738C131.074 51.7708 130.878 51.7991 130.665 51.8227C130.452 51.8414 130.241 51.8579 130.032 51.8721C129.824 51.8862 129.635 51.8932 129.466 51.8932ZM132.05 51.8368V48.2399H133.181L133.211 48.8535H133.278C133.347 48.6797 133.434 48.5432 133.538 48.4445C133.647 48.3457 133.779 48.2777 133.933 48.2399C134.087 48.2022 134.265 48.1835 134.469 48.1835V49.2203C134.156 49.2203 133.911 49.258 133.732 49.3331C133.553 49.4082 133.427 49.5376 133.352 49.721C133.278 49.8998 133.241 50.1512 133.241 50.4756V51.8368H132.05ZM136.585 51.8932C136.248 51.8932 135.967 51.8745 135.744 51.8368C135.52 51.7991 135.344 51.738 135.215 51.6534C135.086 51.5688 134.992 51.4559 134.932 51.3149C134.873 51.1738 134.833 50.9975 134.813 50.7859C134.798 50.5744 134.791 50.3229 134.791 50.0313C134.791 49.7397 134.798 49.4907 134.813 49.2837C134.833 49.0722 134.873 48.8958 134.932 48.7548C134.992 48.6137 135.086 48.5009 135.215 48.4163C135.344 48.3316 135.52 48.2727 135.744 48.2399C135.967 48.2022 136.248 48.1835 136.585 48.1835C136.927 48.1835 137.21 48.2022 137.434 48.2399C137.657 48.2727 137.833 48.3316 137.962 48.4163C138.091 48.5009 138.185 48.6137 138.245 48.7548C138.304 48.8958 138.342 49.0722 138.357 49.2837C138.377 49.4907 138.386 49.7397 138.386 50.0313C138.386 50.3229 138.377 50.5744 138.357 50.7859C138.342 50.9975 138.304 51.1738 138.245 51.3149C138.185 51.4559 138.091 51.5688 137.962 51.6534C137.833 51.738 137.657 51.7991 137.434 51.8368C137.21 51.8745 136.927 51.8932 136.585 51.8932ZM136.585 51.0328C136.734 51.0328 136.851 51.0233 136.935 51.0046C137.019 50.9859 137.079 50.9436 137.113 50.8776C137.148 50.8117 137.168 50.7108 137.173 50.5744C137.183 50.4379 137.188 50.257 137.188 50.0313C137.188 49.8056 137.183 49.6268 137.173 49.4953C137.168 49.3638 137.148 49.265 137.113 49.1991C137.079 49.1332 137.019 49.0908 136.935 49.0722C136.851 49.0535 136.734 49.0439 136.585 49.0439C136.436 49.0439 136.32 49.0535 136.235 49.0722C136.156 49.0908 136.099 49.1332 136.064 49.1991C136.029 49.265 136.007 49.3638 135.997 49.4953C135.992 49.6268 135.989 49.8056 135.989 50.0313C135.989 50.257 135.992 50.4379 135.997 50.5744C136.007 50.7108 136.029 50.8117 136.064 50.8776C136.099 50.9436 136.156 50.9859 136.235 51.0046C136.32 51.0233 136.436 51.0328 136.585 51.0328ZM140.19 51.8932C139.937 51.8932 139.733 51.8625 139.579 51.8015C139.426 51.7405 139.309 51.6509 139.229 51.5335C139.15 51.4161 139.098 51.2701 139.073 51.0963C139.048 50.9224 139.036 50.72 139.036 50.4897V48.2399H140.227V50.1442C140.227 50.337 140.232 50.4897 140.242 50.6026C140.257 50.7108 140.282 50.7905 140.316 50.8424C140.351 50.8942 140.403 50.927 140.473 50.9411C140.542 50.9506 140.636 50.9552 140.755 50.9552C140.885 50.9552 140.986 50.9436 141.061 50.9199C141.14 50.8917 141.197 50.847 141.232 50.7859C141.267 50.7249 141.289 50.6403 141.299 50.532C141.314 50.4192 141.321 50.2806 141.321 50.1159V48.2399H142.52V51.8368H141.381L141.351 51.3995H141.284C141.214 51.5219 141.125 51.6206 141.016 51.6957C140.907 51.7663 140.783 51.8156 140.644 51.8438C140.505 51.8766 140.354 51.8932 140.19 51.8932ZM143.285 53.2403V48.2399H144.417L144.447 48.6772H144.514C144.593 48.5407 144.687 48.4374 144.797 48.3669C144.91 48.2964 145.037 48.2495 145.176 48.2258C145.315 48.1976 145.454 48.1835 145.593 48.1835C145.816 48.1835 146.005 48.2117 146.159 48.2682C146.317 48.3246 146.447 48.4233 146.546 48.5644C146.65 48.7008 146.725 48.8888 146.769 49.1286C146.819 49.3684 146.844 49.6692 146.844 50.0313C146.844 50.3885 146.819 50.6872 146.769 50.927C146.725 51.1668 146.652 51.3572 146.553 51.4983C146.454 51.6393 146.325 51.7405 146.166 51.8015C146.012 51.8625 145.824 51.8932 145.601 51.8932C145.456 51.8932 145.318 51.8816 145.184 51.8579C145.05 51.8343 144.928 51.792 144.819 51.731C144.715 51.6651 144.623 51.5734 144.543 51.4559H144.476V53.2403H143.285ZM145.057 50.9623C145.191 50.9623 145.298 50.9527 145.377 50.934C145.456 50.9154 145.513 50.8776 145.548 50.8212C145.588 50.7602 145.613 50.6685 145.623 50.5462C145.638 50.4238 145.645 50.2545 145.645 50.0384C145.645 49.8222 145.638 49.6529 145.623 49.5306C145.613 49.4036 145.588 49.3119 145.548 49.2555C145.513 49.1945 145.456 49.1568 145.377 49.1427C145.298 49.124 145.191 49.1145 145.057 49.1145C144.913 49.1145 144.801 49.1332 144.722 49.1709C144.648 49.2037 144.59 49.2626 144.551 49.3472C144.521 49.4223 144.501 49.5189 144.491 49.6364C144.481 49.7492 144.476 49.8832 144.476 50.0384C144.476 50.1981 144.481 50.3346 144.491 50.4474C144.501 50.5603 144.519 50.6495 144.543 50.7154C144.583 50.8096 144.642 50.8752 144.722 50.9129C144.801 50.9457 144.913 50.9623 145.057 50.9623Z" fill="white"/>
<g filter="url(#filter0_i_677_53)">
<g filter="url(#filter1_d_677_53)">
<path d="M59.5533 34.7264H40.4111C38.3555 34.7264 36.689 36.3052 36.689 38.2528V56.3582C36.689 58.3057 38.3555 59.8845 40.4111 59.8845H59.5533C61.6089 59.8845 63.2754 58.3057 63.2754 56.3582V38.2528C63.2754 36.3052 61.6089 34.7264 59.5533 34.7264Z" fill="url(#paint0_linear_677_53)"/>
</g>
<g filter="url(#filter2_i_677_53)">
<path d="M51.0405 37.9594C50.9535 37.9594 50.8686 37.9879 50.8113 38.0362C50.7532 38.0849 50.7134 38.1501 50.7134 38.269V41.0548H52.1267C52.1136 40.8425 52.1025 40.6298 52.0917 40.4359H51.3677V38.269C51.3677 38.1501 51.3279 38.0849 51.2698 38.0362C51.2125 37.9879 51.1276 37.9594 51.0405 37.9594ZM59.764 37.9594C59.6769 37.9594 59.592 37.9879 59.5351 38.0362C59.4763 38.0849 59.4372 38.1501 59.4372 38.269V40.4359H58.7762C58.7892 40.6319 58.8044 40.8442 58.8197 41.0548H60.0912V38.269C60.0912 38.1501 60.0521 38.0849 59.9933 38.0362C59.9363 37.9879 59.8515 37.9594 59.764 37.9594ZM52.4691 40.1139C52.5082 40.8714 52.5692 41.8288 52.6109 42.8091L52.65 42.7721C52.8923 42.5492 53.1845 42.2974 53.544 42.2868C53.7298 42.283 53.8909 42.3549 54.0175 42.4459C54.144 42.5365 54.2441 42.6479 54.3424 42.7513C54.5345 42.9597 54.6956 43.1124 54.8482 43.1208C54.999 43.1289 55.1669 43.0073 55.376 42.8338C55.5834 42.6585 55.8298 42.4335 56.183 42.4459C56.5779 42.4625 56.8243 42.7555 57.0402 42.9805C57.1492 43.0919 57.2497 43.191 57.3435 43.2527C57.4351 43.3148 57.5069 43.3373 57.5899 43.3292C57.7425 43.3105 58.0325 43.0711 58.2398 42.8049C58.3597 42.6522 58.4557 42.5016 58.5167 42.4004C58.4642 41.5728 58.4054 40.7846 58.3597 40.1139C56.375 40.2169 54.4142 40.1943 52.4691 40.1139ZM53.5574 42.6585C53.4286 42.6624 53.1405 42.838 52.9247 43.0383C52.8003 43.1515 52.6958 43.2629 52.6303 43.3416C52.6414 43.6801 52.6477 44.0183 52.65 44.3487C52.6805 44.324 52.7088 44.299 52.7393 44.2743C53.0296 44.037 53.3829 43.7707 53.7819 43.8077C53.9628 43.8264 54.1023 43.9298 54.1984 44.0412C54.2944 44.1505 54.3621 44.2764 54.4254 44.3899C54.4906 44.5056 54.552 44.6086 54.6085 44.6749C54.6651 44.7387 54.7046 44.7613 54.7567 44.7634C54.8267 44.7676 54.8832 44.7429 54.9662 44.6706C55.0489 44.5962 55.1363 44.4788 55.2301 44.3529C55.3239 44.227 55.4218 44.0906 55.5484 43.9791C55.6686 43.874 55.8298 43.7894 56.0196 43.7915C56.0304 43.7915 56.0434 43.7915 56.0564 43.7936C56.266 43.812 56.4275 43.9336 56.5343 44.0701C56.6434 44.2062 56.7152 44.361 56.7871 44.5074C56.8593 44.6519 56.9289 44.7881 56.9989 44.8769C57.0685 44.9658 57.1209 44.9986 57.1972 45.0049C57.2974 45.013 57.4481 44.9679 57.6093 44.8706C57.7708 44.7718 57.9409 44.6294 58.0913 44.4827C58.3619 44.2186 58.5603 43.9587 58.5997 43.9068C58.5863 43.6138 58.5711 43.3186 58.5558 43.0256C58.3247 43.3186 58.0392 43.6533 57.6379 43.6963C57.437 43.7192 57.2583 43.6512 57.1165 43.556C56.9747 43.4632 56.8615 43.3437 56.7502 43.2301C56.5321 43.003 56.3423 42.8235 56.1655 42.8172C56.0151 42.8112 55.845 42.9371 55.6358 43.1102C55.4285 43.2858 55.1799 43.5108 54.8267 43.4921C54.46 43.4734 54.2378 43.2033 54.0458 42.9967C53.952 42.8937 53.8604 42.801 53.7796 42.741C53.697 42.6811 53.6315 42.6564 53.5574 42.6585ZM55.9954 44.165C55.9366 44.165 55.8863 44.1896 55.8145 44.2517C55.7337 44.324 55.6444 44.4393 55.5528 44.5652C55.459 44.6911 55.3608 44.8276 55.2342 44.9407C55.108 45.0522 54.9357 45.1474 54.7306 45.135C54.5497 45.1224 54.4057 45.0236 54.3074 44.9139C54.2114 44.8046 54.144 44.6787 54.0785 44.5652C54.0152 44.4499 53.9542 44.3444 53.8954 44.2764C53.8366 44.2083 53.7949 44.1837 53.7428 44.1794C53.592 44.1628 53.2585 44.3385 52.9991 44.555C52.8573 44.6727 52.7352 44.7902 52.65 44.8748C52.6455 45.4052 52.6239 45.9027 52.5781 46.3382C54.9945 46.146 56.7677 46.6993 58.58 47.1451C58.6474 46.3668 58.6518 45.4404 58.6213 44.4806C58.5473 44.5631 58.4642 44.6519 58.3727 44.7408C58.2093 44.9016 58.0217 45.0606 57.8211 45.1823C57.6182 45.304 57.4001 45.3949 57.1623 45.3762C56.9531 45.3579 56.7915 45.2359 56.6847 45.0998C56.5757 44.9637 56.5038 44.8089 56.4316 44.6622C56.3598 44.5179 56.2898 44.3815 56.2202 44.293C56.1502 44.2041 56.0981 44.1713 56.0218 44.165C56.0129 44.165 56.0043 44.1628 55.9954 44.165Z" fill="url(#paint1_radial_677_53)"/>
</g>
<g filter="url(#filter3_i_677_53)">
<path d="M45.6074 47.2079C45.5691 47.2445 45.53 47.3355 45.5717 47.5397C45.613 47.7435 45.737 48.0334 45.961 48.3814L45.9629 48.3846L45.9651 48.3878C46.9597 50.0525 48.7235 50.9518 50.2697 52.3961C50.3668 52.4868 50.3992 52.6052 50.4044 52.71C50.4097 52.8147 50.3918 52.9173 50.3616 53.0256C50.3021 53.2421 50.1904 53.4815 50.0516 53.7298C49.8178 54.1473 49.5097 54.5743 49.2178 54.8931L49.4985 55.1551L54.0562 50.7857L53.7755 50.5233C53.4428 50.8037 52.9954 51.1009 52.5569 51.3277C52.2968 51.4624 52.0451 51.5706 51.8173 51.6302C51.7031 51.6598 51.5948 51.6785 51.4842 51.6747C51.3737 51.6711 51.2479 51.6422 51.1507 51.5516C49.6783 50.1763 48.8963 48.5817 46.8595 47.5309L46.8558 47.5288L46.8521 47.5266C46.4817 47.3197 46.1739 47.2058 45.9577 47.1694C45.7418 47.1328 45.6458 47.1708 45.6074 47.2079ZM46.3641 47.9145C46.4043 47.8758 46.4602 47.8528 46.5286 47.8461C46.5971 47.8398 46.6768 47.85 46.7628 47.8765C46.8487 47.9033 46.9399 47.9456 47.0307 48.0009C47.1212 48.0567 47.2098 48.1244 47.2917 48.2005C47.3732 48.2767 47.4458 48.3599 47.5057 48.4449C47.5656 48.5299 47.6114 48.6156 47.6408 48.6967C47.6698 48.7778 47.6817 48.8529 47.6758 48.9178C47.6698 48.9823 47.646 49.0356 47.6058 49.0743C47.5247 49.1523 47.3814 49.1657 47.2075 49.1121C47.0334 49.0585 46.8432 48.9418 46.6786 48.788C46.5971 48.7118 46.5242 48.629 46.4642 48.544C46.4043 48.4587 46.3585 48.3733 46.3295 48.2919C46.3001 48.2108 46.2882 48.1356 46.2941 48.0711C46.3001 48.0062 46.3239 47.953 46.3641 47.9145ZM49.8476 55.4813L50.1193 55.7352L54.677 51.3654L54.4057 51.1119L49.8476 55.4813ZM50.4685 56.0614L50.7402 56.3149L55.2979 51.9455L55.0265 51.6916L50.4685 56.0614ZM51.0867 56.6436C51.6822 57.2036 52.6358 58.1504 53.0497 59.3892L53.5626 58.8973C53.5678 58.6067 53.5559 58.3366 53.5284 58.0855C53.6717 58.2033 53.8042 58.3778 53.9207 58.5541L54.6193 57.8841C54.4928 57.6486 54.3216 57.4462 54.1697 57.2297C54.4087 57.3622 54.6532 57.4899 54.8672 57.6465L55.9678 56.5914C55.7855 56.5304 55.6139 56.4302 55.446 56.3156C55.7144 56.3551 55.9946 56.3364 56.2798 56.292L56.975 55.6259C56.8745 55.36 56.7636 55.1043 56.614 54.8864C56.9214 54.9457 57.1444 55.0969 57.3569 55.2595L57.8955 54.7433C57.798 54.6727 57.7209 54.5779 57.6443 54.3818C57.8267 54.4749 58.0057 54.482 58.1881 54.4626L58.5767 54.0905C57.262 53.7153 56.2492 52.8253 55.65 52.2692L51.0867 56.6436Z" fill="url(#paint2_radial_677_53)"/>
</g>
<g filter="url(#filter4_i_677_53)">
<mask id="mask0_677_53" style="mask-type:luminance" maskUnits="userSpaceOnUse" x="38" y="36" width="12" height="12">
<path d="M49.876 41.4166L43.4802 36.9025L38.7098 42.9547L45.1056 47.4688L49.876 41.4166Z" fill="white"/>
</mask>
<g mask="url(#mask0_677_53)">
<path d="M45.435 38.6244C45.4209 38.6142 45.406 38.6043 45.3915 38.5944C45.0736 38.3769 44.7305 38.221 44.4025 38.1526C45.3796 38.9883 45.7879 40.2666 44.7509 40.6527C44.6955 40.6735 44.6404 40.6933 44.586 40.7134L44.5901 40.7197C44.5559 40.7398 44.5343 40.7762 44.5306 40.853C44.5265 40.9299 44.5484 41.0354 44.5939 41.1362C44.6393 41.2374 44.7074 41.334 44.78 41.4003C44.8477 41.4624 44.9154 41.4952 44.9728 41.5008C45.0193 41.4843 45.0662 41.467 45.1135 41.45C45.4648 41.5393 45.7295 42.0968 45.6558 42.3704C45.805 42.2142 46.0161 42.0746 46.2684 41.9716C46.4601 41.8937 46.6518 41.8461 46.8301 41.8302C46.5089 41.7371 46.5182 41.4853 46.6671 41.0858C46.8104 40.7018 46.6537 40.2053 46.4981 39.8657C46.2744 39.378 45.8821 38.9407 45.435 38.6244ZM47.2849 42.1733C47.235 42.1377 47.1546 42.1102 47.0385 42.1017C46.8613 42.089 46.6231 42.1274 46.3834 42.2248C46.1441 42.3225 45.9513 42.46 45.8393 42.5901C45.7272 42.7206 45.7064 42.825 45.735 42.8874C45.7633 42.9498 45.8582 43.008 46.035 43.0207C46.2122 43.0334 46.4501 42.9953 46.6898 42.898C46.9291 42.8003 47.1219 42.6627 47.2339 42.5323C47.346 42.4022 47.3672 42.2974 47.3385 42.235C47.3314 42.2191 47.3203 42.204 47.3046 42.1895C47.2987 42.1842 47.292 42.1786 47.2849 42.1733ZM44.2391 40.8382C41.0698 41.9568 39.6323 41.8915 39.4414 42.5675C39.3539 42.8775 39.4957 43.2749 39.8631 43.3945C40.6261 43.6434 41.4881 42.8123 44.6166 41.6331C44.6032 41.6221 44.5901 41.6108 44.5775 41.5989C44.4699 41.5008 44.3854 41.376 44.3262 41.2441C44.2671 41.1122 44.2321 40.9733 44.2391 40.8396C44.2391 40.8389 44.2391 40.8382 44.2391 40.8382ZM47.2317 44.2782L45.6431 43.5694L46.1396 44.2055L45.1451 46.2434L45.4094 46.3594L46.4028 44.3229L47.2317 44.2782ZM44.5842 42.7012L42.8452 42.9343L43.6291 43.2079L43.8502 44.6072L42.7704 45.4069L42.9502 45.6241L43.8997 44.9206L43.9801 45.4284L44.2678 45.3875L44.1632 44.7256L44.8179 44.2404L45.5862 44.5514L44.493 43.2509L44.6363 44.0246L44.1137 44.4118L43.9172 43.1695L44.5842 42.7012Z" fill="url(#paint3_radial_677_53)"/>
</g>
</g>
<g filter="url(#filter5_d_677_53)">
<path d="M30.3084 34.7893H11.1662C9.11059 34.7893 7.44415 36.3681 7.44415 38.3156V56.421C7.44415 58.3686 9.11059 59.9473 11.1662 59.9473H30.3084C32.364 59.9473 34.0305 58.3686 34.0305 56.421V38.3156C34.0305 36.3681 32.364 34.7893 30.3084 34.7893Z" fill="url(#paint4_linear_677_53)"/>
</g>
<g filter="url(#filter6_i_677_53)">
<path d="M23.8525 44.2993C23.7273 44.3011 23.6081 44.3131 23.4982 44.3353C23.1377 44.4083 22.71 44.6167 22.4045 44.8924C22.1021 45.1682 21.931 45.4901 21.9708 45.8177L22.0257 46.2363L21.6042 46.0946C20.7327 45.7945 20.0762 46.0977 19.5844 46.6817C19.0923 47.2685 18.8277 48.15 18.9019 48.8842C18.956 49.422 19.3507 49.9566 19.9045 50.373C20.458 50.7863 21.1612 51.0723 21.7356 51.1361C22.2426 51.1908 22.9086 50.8642 23.4279 50.4887C23.9503 50.1128 24.3199 49.7196 24.3199 49.7196L24.4635 49.5666L24.6529 49.6646C24.6529 49.6646 24.995 49.8353 25.4166 50.0172C25.8381 50.2024 26.3544 50.3931 26.6079 50.4309C26.8157 50.4626 27.2555 50.3526 27.6099 50.2112C27.9642 50.0666 28.2422 49.9132 28.2422 49.9132L28.4866 49.7774L28.621 50.0144C28.621 50.0144 28.8654 50.4421 29.2686 50.8642C29.6719 51.2892 30.2156 51.6767 30.7593 51.6707C31.297 51.6651 31.7491 51.2719 32.0974 50.6735C32.4456 50.0751 32.6594 49.2975 32.7114 48.6963C32.7938 47.7914 32.354 46.615 31.5811 46.1901C31.3947 46.0889 30.8632 46.1034 30.405 46.1989C29.9468 46.297 29.5619 46.4387 29.5619 46.4387L29.0304 46.6323L29.1984 46.1178C29.1984 46.1178 29.2656 45.9115 29.2075 45.658C29.1495 45.4048 28.9998 45.1195 28.4255 44.9245C27.6252 44.6512 27.2158 44.7898 26.9714 44.958C26.7271 45.1266 26.6568 45.3382 26.6568 45.3382L26.4674 45.89L26.1558 45.3889C25.9573 45.0642 25.5204 44.7373 25.0164 44.5327C24.6376 44.379 24.2252 44.294 23.8525 44.2993ZM24.5795 50.214C24.5032 50.2891 24.3932 50.3931 24.2496 50.5173C24.2771 50.7401 24.268 50.9711 24.1885 51.2313C24.1519 51.3442 23.877 51.2342 23.5379 51.0578C23.2355 51.2574 22.8994 51.4426 22.5389 51.5551C22.8506 51.7084 23.1988 51.853 23.6143 52.0089C23.4707 54.891 23.6845 56.7035 21.2559 57.5071H24.494V54.2696C24.494 53.3447 26.8157 53.3447 26.8157 54.2696V57.5071H30.5425C30.0843 57.1862 29.3542 56.9926 28.1781 56.8103C27.2525 54.1046 27.6404 53.0872 29.3939 51.6912C29.1923 51.5438 29.0151 51.3759 28.8593 51.2141C28.7921 51.1446 28.7341 51.0755 28.6791 51.0116C28.398 51.292 28.0864 51.4859 27.7932 51.4136C27.5518 51.353 27.4022 51.1418 27.3136 50.8671C27.0539 50.9394 26.7851 50.9827 26.5224 50.9454C26.2749 50.9104 25.9878 50.8181 25.7037 50.7052C25.664 50.9136 25.5571 51.1188 25.3432 51.3354C25.2119 51.4683 25.0194 50.9104 24.827 50.3297C24.7323 50.2863 24.6498 50.2457 24.5795 50.214ZM26.1742 55.4372C26.1012 55.4372 26.0313 55.4647 25.9797 55.5137C25.9282 55.5624 25.8992 55.6287 25.8992 55.6974C25.8992 55.7665 25.9282 55.8328 25.9797 55.8815C26.0313 55.9302 26.1012 55.9577 26.1742 55.9577C26.2471 55.9577 26.317 55.9302 26.3686 55.8815C26.4201 55.8328 26.4491 55.7665 26.4491 55.6974C26.4491 55.6287 26.4201 55.5624 26.3686 55.5137C26.317 55.4647 26.2471 55.4372 26.1742 55.4372Z" fill="url(#paint5_radial_677_53)"/>
</g>
<g filter="url(#filter7_i_677_53)">
<path d="M16.9773 48.1589C16.6733 46.6979 16.0927 45.8284 15.7532 45.4257L15.726 45.3943L15.6886 45.3717C15.3036 45.1686 15.075 44.774 15.0995 44.3561C15.1352 43.7489 15.6802 43.2873 16.3244 43.3211C16.9662 43.355 17.4539 43.8705 17.4183 44.4778C17.4068 44.6742 17.3402 44.8607 17.2264 45.0265L17.1497 45.1372L17.2203 45.2532C17.6208 45.8947 17.6269 46.4515 17.4699 47.0238C17.368 47.3986 17.1788 47.7781 16.9773 48.1589ZM14.2113 45.3883C14.0281 45.3763 13.8535 45.3396 13.7123 45.2705C13.6267 45.0804 13.5878 44.8357 13.4956 44.5924C13.4428 44.4616 13.3685 44.3247 13.2366 44.2218C13.1116 44.1234 12.9431 44.0666 12.7524 44.0589C11.4029 43.7521 10.5607 43.3391 10.007 42.8747C9.44844 42.4128 9.16906 41.894 8.96219 41.3358L8.9623 41.3337C8.92653 41.2424 8.93952 41.186 8.97704 41.1235C9.01724 41.0573 9.09607 40.9924 9.19058 40.9493C9.28746 40.9063 9.39979 40.8894 9.48656 40.8961C9.57071 40.9053 9.62476 40.9331 9.66094 40.9765C9.93537 41.332 10.2651 41.8165 10.6896 42.2146C11.1164 42.6124 11.6616 42.9318 12.3318 42.8938C12.8466 42.8659 13.1219 43.0821 13.5254 43.3412C13.8403 43.5433 14.2294 43.7584 14.7782 43.8102C14.7034 43.971 14.6568 44.1474 14.6459 44.3321C14.6241 44.7045 14.7484 45.0614 14.9786 45.346C14.8421 45.3618 14.6932 45.3837 14.5378 45.3914C14.4554 45.3943 14.3729 45.3967 14.2909 45.3925L14.2113 45.3883ZM19.9627 45.2962C19.3113 45.0536 18.62 44.8318 17.8082 44.8442C17.8414 44.7338 17.8651 44.6181 17.8719 44.5018C17.8925 44.1502 17.7814 43.8166 17.5843 43.5454C18.2792 43.5863 18.7457 43.8444 19.1444 44.2274C19.4489 44.5226 19.7074 44.9027 19.9627 45.2962ZM16.2252 45.0131C16.5702 45.0311 16.8707 44.7768 16.8899 44.4503C16.909 44.1237 16.6401 43.8392 16.2951 43.8212C15.95 43.8032 15.6495 44.0574 15.6304 44.384C15.6112 44.7105 15.8801 44.9947 16.2252 45.0131ZM16.2504 44.5836C16.149 44.5783 16.0759 44.5035 16.0816 44.4076C16.0871 44.3142 16.1686 44.245 16.2699 44.2503C16.3688 44.2556 16.4418 44.3328 16.4363 44.4263C16.4306 44.5222 16.3493 44.5889 16.2504 44.5836ZM15.7202 42.9756C15.6386 41.7667 15.1881 40.9483 14.6373 40.3125C14.0297 39.6118 13.3261 39.1054 12.8418 38.4478C12.8173 38.3709 12.8071 38.2147 12.8361 38.0514C12.8705 37.8769 12.9419 37.6903 13.0317 37.5623C13.1212 37.4389 13.209 37.386 13.2867 37.3832C13.3595 37.3804 13.4924 37.4237 13.6828 37.6445C14.0725 38.4277 14.8649 39.6488 15.9736 40.2247C16.4127 40.4539 16.6104 40.755 16.7033 41.1101C16.794 41.4631 16.7675 41.8739 16.7062 42.258C16.6587 42.5736 16.7106 42.8031 16.7781 42.9717C16.6429 42.9255 16.4992 42.8998 16.3496 42.892C16.13 42.8804 15.9151 42.9124 15.7202 42.9756Z" fill="url(#paint6_radial_677_53)"/>
</g>
<g filter="url(#filter8_d_677_53)">
<path d="M30.3084 7.05261H11.1662C9.11059 7.05261 7.44415 8.6314 7.44415 10.5789V28.6843C7.44415 30.6319 9.11059 32.2107 11.1662 32.2107H30.3084C32.364 32.2107 34.0305 30.6319 34.0305 28.6843V10.5789C34.0305 8.6314 32.364 7.05261 30.3084 7.05261Z" fill="url(#paint7_linear_677_53)"/>
</g>
<g filter="url(#filter9_i_677_53)">
<path d="M20.9351 13.4577C20.8835 13.4172 20.8147 13.3947 20.7432 13.3947C20.6717 13.3947 20.603 13.4172 20.5514 13.4577L14.1638 18.4566C14.1367 18.4779 14.1151 18.5034 14.1003 18.5317C14.0856 18.56 14.078 18.5905 14.0781 18.6212L14.077 23.3129C14.077 23.5541 14.194 23.7854 14.4022 23.956C14.6104 24.1266 14.8928 24.2224 15.1873 24.2224H18.5216C18.6688 24.2224 18.8101 24.1745 18.9142 24.0892C19.0183 24.0039 19.0768 23.8883 19.0768 23.7676V19.902C19.0768 19.8417 19.106 19.7838 19.1581 19.7412C19.2101 19.6985 19.2807 19.6746 19.3543 19.6746H22.1301C22.2037 19.6746 22.2742 19.6985 22.3263 19.7412C22.3784 19.7838 22.4076 19.8417 22.4076 19.902V23.7676C22.4076 23.8883 22.4661 24.0039 22.5702 24.0892C22.6743 24.1745 22.8155 24.2224 22.9628 24.2224H26.2957C26.5902 24.2224 26.8725 24.1266 27.0808 23.956C27.289 23.7854 27.406 23.5541 27.406 23.3129V18.6212C27.406 18.5905 27.3984 18.56 27.3837 18.5317C27.369 18.5034 27.3474 18.4779 27.3203 18.4566L20.9351 13.4577Z" fill="url(#paint8_radial_677_53)"/>
<path d="M28.8926 17.5187L26.2973 15.4847V12.3981C26.2973 12.2775 26.2388 12.1618 26.1347 12.0765C26.0306 11.9912 25.8894 11.9433 25.7422 11.9433H24.0768C23.9296 11.9433 23.7883 11.9912 23.6842 12.0765C23.5801 12.1618 23.5216 12.2775 23.5216 12.3981V13.3077L21.512 11.7336C21.3239 11.5778 21.0443 11.4885 20.7421 11.4885C20.441 11.4885 20.162 11.5778 19.9739 11.7339L12.594 17.5181C12.3782 17.6886 12.3512 17.9692 12.5475 18.154C12.5968 18.2006 12.6572 18.2385 12.725 18.2654C12.7928 18.2923 12.8665 18.3077 12.9418 18.3105C13.017 18.3133 13.0921 18.3036 13.1626 18.2818C13.2331 18.2601 13.2975 18.2268 13.3518 18.1841L20.5513 12.5482C20.6029 12.5077 20.6716 12.4851 20.7432 12.4851C20.8146 12.4851 20.8834 12.5077 20.935 12.5482L28.1352 18.1841C28.2413 18.2674 28.3833 18.3129 28.5302 18.3105C28.6772 18.3082 28.8169 18.2582 28.919 18.1716C29.132 17.9908 29.1143 17.6923 28.8926 17.5187Z" fill="url(#paint9_radial_677_53)"/>
<path fill-rule="evenodd" clip-rule="evenodd" d="M14.5247 23.6796C15.0865 23.3842 16.2614 23.3953 16.8549 23.6505C17.6545 23.9942 18.7813 24.3316 20.5645 24.3316C22.3785 24.3316 23.4883 24.0609 24.2439 23.7215C24.8309 23.4575 26.0832 23.415 26.6987 23.7282C27.2019 23.9844 27.7523 24.1881 28.8385 24.2745C28.9927 24.2884 29.1258 24.3231 29.2094 24.3715C29.293 24.4199 29.3206 24.478 29.2863 24.5335C29.2519 24.589 29.1583 24.6375 29.0254 24.6687C28.8925 24.6999 28.7308 24.7114 28.5746 24.7007C27.0757 24.5819 26.2957 24.2827 25.6989 23.9791C25.6598 23.959 25.589 23.9442 25.4823 23.9451C25.4283 23.9453 25.375 23.9497 25.3263 23.958C25.2775 23.9663 25.2343 23.9783 25.1997 23.9931C24.2422 24.4233 22.7954 24.7682 20.5645 24.7682C18.266 24.7682 16.8273 24.3223 15.9153 23.9293C15.8894 23.9183 15.8569 23.9095 15.8201 23.9035C15.7833 23.8975 15.7432 23.8946 15.7028 23.895C15.6699 23.8946 15.6373 23.8973 15.6079 23.9025C15.5785 23.9078 15.5532 23.9156 15.5343 23.9253C14.9269 24.2446 14.1477 24.5743 12.5543 24.7007C12.4751 24.7077 12.3928 24.7091 12.3121 24.7046C12.2315 24.7001 12.1542 24.6899 12.0848 24.6746C12.0153 24.6592 11.9552 24.6391 11.908 24.6153C11.8607 24.5915 11.8273 24.5646 11.8097 24.5361C11.792 24.5076 11.7905 24.4781 11.8053 24.4494C11.82 24.4207 11.8508 24.3934 11.8956 24.369C11.9404 24.3446 11.9984 24.3237 12.0663 24.3075C12.1341 24.2913 12.2104 24.28 12.2905 24.2745C13.4402 24.1831 13.9906 23.9602 14.5247 23.6796ZM14.5247 26.5902C15.0865 26.2948 16.2614 26.3058 16.8549 26.5611C17.6545 26.9049 18.7813 27.2422 20.5645 27.2422C22.3785 27.2422 23.4883 26.9715 24.2439 26.6321C24.8309 26.3681 26.0832 26.3257 26.6987 26.6388C27.2019 26.895 27.7523 27.0987 28.8385 27.1852C28.9927 27.199 29.1258 27.2338 29.2094 27.2821C29.293 27.3304 29.3206 27.3886 29.2863 27.4441C29.2519 27.4996 29.1583 27.5481 29.0254 27.5793C28.8925 27.6105 28.7308 27.622 28.5746 27.6113C27.0757 27.4925 26.2957 27.1933 25.6989 26.8897C25.6598 26.8696 25.589 26.8548 25.4823 26.8557C25.4283 26.8559 25.375 26.8603 25.3263 26.8686C25.2775 26.8769 25.2343 26.8888 25.1997 26.9037C24.2422 27.3342 22.7954 27.6788 20.5645 27.6788C18.266 27.6788 16.8273 27.2329 15.9153 26.84C15.8894 26.8289 15.8569 26.82 15.8201 26.8141C15.7833 26.8082 15.7432 26.8053 15.7028 26.8056C15.6699 26.8053 15.6373 26.8078 15.6079 26.8131C15.5785 26.8184 15.5532 26.8262 15.5343 26.8359C14.9269 27.1552 14.1477 27.4849 12.5543 27.6113C12.3961 27.6238 12.2306 27.6133 12.094 27.5822C11.9574 27.551 11.861 27.5017 11.826 27.4452C11.791 27.3887 11.8203 27.3295 11.9074 27.2806C11.9945 27.2318 12.1323 27.1974 12.2905 27.1848C13.4402 27.094 13.9906 26.8708 14.5247 26.5902Z" fill="url(#paint10_radial_677_53)"/>
<path opacity="0.5" d="M14.5247 25.1349C15.0865 24.8395 16.2614 24.8506 16.8549 25.1058C17.6545 25.4496 18.7813 25.7869 20.5645 25.7869C22.3785 25.7869 23.4883 25.5162 24.2439 25.1768C24.8309 24.9129 26.0832 24.8704 26.6987 25.1835C27.2019 25.4397 27.7523 25.6434 28.8385 25.7299C28.9927 25.7437 29.1258 25.7785 29.2094 25.8268C29.293 25.8752 29.3206 25.9333 29.2863 25.9888C29.2519 26.0443 29.1583 26.0928 29.0254 26.1241C28.8925 26.1553 28.7308 26.1667 28.5746 26.156C27.0757 26.0372 26.2957 25.738 25.6989 25.4344C25.6598 25.4143 25.5889 25.3995 25.4823 25.4004C25.4283 25.4006 25.375 25.405 25.3263 25.4133C25.2775 25.4216 25.2343 25.4336 25.1997 25.4484C24.2422 25.8789 22.7954 26.2235 20.5645 26.2235C18.266 26.2235 16.8273 25.7773 15.9153 25.3847C15.8894 25.3736 15.8569 25.3648 15.8201 25.3588C15.7833 25.3529 15.7432 25.35 15.7028 25.3503C15.6699 25.35 15.6373 25.3526 15.6079 25.3579C15.5785 25.3631 15.5532 25.3709 15.5343 25.3806C14.9269 25.6999 14.1477 26.0297 12.5543 26.156C12.3961 26.1685 12.2306 26.158 12.094 26.1269C11.9574 26.0957 11.861 26.0465 11.826 25.9899C11.791 25.9334 11.8203 25.8742 11.9074 25.8254C11.9945 25.7765 12.1323 25.7421 12.2905 25.7296C13.4402 25.6388 13.9906 25.4155 14.5247 25.1349Z" fill="black"/>
</g>
<g filter="url(#filter10_d_677_53)">
<path d="M59.5533 7.05261H40.4111C38.3555 7.05261 36.689 8.6314 36.689 10.5789V28.6843C36.689 30.6319 38.3555 32.2107 40.4111 32.2107H59.5533C61.6089 32.2107 63.2754 30.6319 63.2754 28.6843V10.5789C63.2754 8.6314 61.6089 7.05261 59.5533 7.05261Z" fill="url(#paint11_linear_677_53)"/>
</g>
<g filter="url(#filter11_i_677_53)">
<path fill-rule="evenodd" clip-rule="evenodd" d="M57.1444 15.2997C57.7124 15.0521 57.7619 14.8282 57.7619 14.7133C57.7619 14.5984 57.7124 14.3745 57.1444 14.1268C56.5757 13.8792 55.695 13.7227 54.6216 13.7227C53.5481 13.7227 52.6682 13.8792 52.0988 14.1268C51.5308 14.3745 51.4809 14.5984 51.4809 14.7133C51.4809 14.8282 51.5308 15.0521 52.0988 15.2997C52.6675 15.5474 53.5481 15.7039 54.6216 15.7039C55.695 15.7039 56.5749 15.5474 57.1444 15.2997ZM54.6216 16.6945C55.7996 16.6945 56.8638 16.5227 57.6253 16.18C57.6071 16.2752 57.5873 16.3701 57.5661 16.4646L56.7424 20.1034C56.7346 20.1246 56.7257 20.1454 56.7153 20.1655C56.6613 20.272 56.588 20.3687 56.499 20.4515C56.2854 20.6535 55.7799 20.9871 54.6216 20.9871C53.4629 20.9871 52.9578 20.6535 52.7442 20.4521C52.6548 20.3693 52.5819 20.2723 52.5279 20.1655C52.5179 20.1451 52.5089 20.1242 52.5015 20.1028L52.4859 20.0367C52.5622 20.0255 52.6388 20.0116 52.7163 19.9951C53.7756 19.7765 55.0083 19.1677 56.3602 18.0595C56.4119 18.0169 56.4547 17.9651 56.4852 17.9069C56.5161 17.8487 56.5344 17.7854 56.5396 17.7206C56.5444 17.6557 56.5359 17.5905 56.5139 17.5288C56.4923 17.4671 56.4581 17.41 56.413 17.3608C56.368 17.3116 56.3133 17.2713 56.2519 17.2422C56.1905 17.2131 56.1235 17.1957 56.055 17.191C55.9865 17.1864 55.9173 17.1945 55.8521 17.215C55.787 17.2355 55.7267 17.268 55.6746 17.3106C54.4094 18.3488 53.3297 18.8546 52.4922 19.0277C52.4155 19.0435 52.3396 19.0567 52.2663 19.0673L51.6771 16.4653C51.6562 16.3702 51.6361 16.2758 51.6179 16.18C52.3787 16.5234 53.4436 16.6945 54.6216 16.6945ZM51.1809 19.0032L50.6944 16.8543C50.499 17.1356 50.3918 17.413 50.3527 17.6646C50.2779 18.1401 50.4432 18.5383 50.7659 18.7873C50.8761 18.8731 51.0141 18.9484 51.1816 19.0032H51.1809ZM50.4774 15.581C50.4488 15.2926 50.4342 15.003 50.4342 14.7133C50.4342 13.3925 52.3087 12.7321 54.6216 12.7321C56.9345 12.7321 58.8089 13.3925 58.8089 14.7133C58.8089 15.3717 58.7356 16.0288 58.5897 16.6727L57.7619 20.3266C57.7619 20.3266 57.4132 21.9776 54.6216 21.9776C51.83 21.9776 51.4809 20.3266 51.4809 20.3266L51.4225 20.0664C50.9088 20.0064 50.4607 19.8313 50.1034 19.5546C49.465 19.0607 49.1941 18.3019 49.3161 17.5199C49.4207 16.8463 49.8104 16.1668 50.4759 15.581H50.4774Z" fill="url(#paint12_radial_677_53)"/>
</g>
<g filter="url(#filter12_i_677_53)">
<path d="M39.1917 11.0708C38.6099 11.2318 38.4566 11.9483 38.8485 12.6714L44.3021 21.5646L43.4542 21.7983C43.1371 21.8852 42.9823 22.1452 43.1081 22.3782C43.1762 22.5049 43.3146 22.5976 43.4769 22.6416C44.2381 24.7026 42.0406 27.2743 41.2891 28.0729C41.8638 28.2007 42.4467 28.2891 43.0307 28.3392C44.202 27.3009 44.8649 25.9568 44.7875 24.5166C44.8292 24.6692 44.8664 24.8235 44.8921 24.9806C45.0942 26.2098 44.7495 27.3869 44.0017 28.3865C44.9218 28.3984 45.8349 28.3161 46.7148 28.143C47.0058 27.4657 47.1272 26.739 47.0468 25.9911C47.097 26.1422 47.1413 26.2958 47.1752 26.4523C47.2932 26.9892 47.3051 27.5191 47.2236 28.0315C47.9855 27.8481 48.7161 27.5957 49.3988 27.276C49.4747 25.9989 48.973 24.6936 47.8668 23.5869C48.0194 23.6974 48.1679 23.8118 48.3104 23.9326C49.334 24.8044 49.9448 25.8287 50.1614 26.8785C50.732 26.5493 51.2583 26.1684 51.7277 25.7373C51.5981 24.3076 48.5401 22.4854 46.8979 21.689C46.9705 21.5807 46.9828 21.4505 46.9161 21.3279C46.7907 21.0949 46.4315 20.977 46.1151 21.0639L45.2512 21.3021L40.9534 12.0885C40.5618 11.3658 39.7723 10.9098 39.1917 11.0708Z" fill="url(#paint13_radial_677_53)"/>
</g>
</g>
</g>
<defs>
<filter id="filter0_i_677_53" x="7.44415" y="7.05261" width="55.8312" height="54.8948" filterUnits="userSpaceOnUse" color-interpolation-filters="sRGB">
<feFlood flood-opacity="0" result="BackgroundImageFix"/>
<feBlend mode="normal" in="SourceGraphic" in2="BackgroundImageFix" result="shape"/>
<feColorMatrix in="SourceAlpha" type="matrix" values="0 0 0 0 0 0 0 0 0 0 0 0 0 0 0 0 0 0 127 0" result="hardAlpha"/>
<feOffset dy="2"/>
<feGaussianBlur stdDeviation="1"/>
<feComposite in2="hardAlpha" operator="arithmetic" k2="-1" k3="1"/>
<feColorMatrix type="matrix" values="0 0 0 0 0 0 0 0 0 0 0 0 0 0 0 0 0 0 0.1 0"/>
<feBlend mode="normal" in2="shape" result="effect1_innerShadow_677_53"/>
</filter>
<filter id="filter1_d_677_53" x="16.689" y="14.7264" width="66.5863" height="65.1581" filterUnits="userSpaceOnUse" color-interpolation-filters="sRGB">
<feFlood flood-opacity="0" result="BackgroundImageFix"/>
<feColorMatrix in="SourceAlpha" type="matrix" values="0 0 0 0 0 0 0 0 0 0 0 0 0 0 0 0 0 0 127 0" result="hardAlpha"/>
<feOffset/>
<feGaussianBlur stdDeviation="10"/>
<feComposite in2="hardAlpha" operator="out"/>
<feColorMatrix type="matrix" values="0 0 0 0 0 0 0 0 0 0 0 0 0 0 0 0 0 0 0.1 0"/>
<feBlend mode="normal" in2="BackgroundImageFix" result="effect1_dropShadow_677_53"/>
<feBlend mode="normal" in="SourceGraphic" in2="effect1_dropShadow_677_53" result="shape"/>
</filter>
<filter id="filter2_i_677_53" x="50.7134" y="37.9594" width="9.37781" height="11.1857" filterUnits="userSpaceOnUse" color-interpolation-filters="sRGB">
<feFlood flood-opacity="0" result="BackgroundImageFix"/>
<feBlend mode="normal" in="SourceGraphic" in2="BackgroundImageFix" result="shape"/>
<feColorMatrix in="SourceAlpha" type="matrix" values="0 0 0 0 0 0 0 0 0 0 0 0 0 0 0 0 0 0 127 0" result="hardAlpha"/>
<feOffset dy="4"/>
<feGaussianBlur stdDeviation="1"/>
<feComposite in2="hardAlpha" operator="arithmetic" k2="-1" k3="1"/>
<feColorMatrix type="matrix" values="0 0 0 0 1 0 0 0 0 1 0 0 0 0 1 0 0 0 1 0"/>
<feBlend mode="normal" in2="shape" result="effect1_innerShadow_677_53"/>
</filter>
<filter id="filter3_i_677_53" x="45.5538" y="47.1545" width="13.0229" height="14.2346" filterUnits="userSpaceOnUse" color-interpolation-filters="sRGB">
<feFlood flood-opacity="0" result="BackgroundImageFix"/>
<feBlend mode="normal" in="SourceGraphic" in2="BackgroundImageFix" result="shape"/>
<feColorMatrix in="SourceAlpha" type="matrix" values="0 0 0 0 0 0 0 0 0 0 0 0 0 0 0 0 0 0 127 0" result="hardAlpha"/>
<feOffset dy="4"/>
<feGaussianBlur stdDeviation="1"/>
<feComposite in2="hardAlpha" operator="arithmetic" k2="-1" k3="1"/>
<feColorMatrix type="matrix" values="0 0 0 0 1 0 0 0 0 1 0 0 0 0 1 0 0 0 1 0"/>
<feBlend mode="normal" in2="shape" result="effect1_innerShadow_677_53"/>
</filter>
<filter id="filter4_i_677_53" x="39.4163" y="38.1526" width="7.93372" height="10.2068" filterUnits="userSpaceOnUse" color-interpolation-filters="sRGB">
<feFlood flood-opacity="0" result="BackgroundImageFix"/>
<feBlend mode="normal" in="SourceGraphic" in2="BackgroundImageFix" result="shape"/>
<feColorMatrix in="SourceAlpha" type="matrix" values="0 0 0 0 0 0 0 0 0 0 0 0 0 0 0 0 0 0 127 0" result="hardAlpha"/>
<feOffset dy="4"/>
<feGaussianBlur stdDeviation="1"/>
<feComposite in2="hardAlpha" operator="arithmetic" k2="-1" k3="1"/>
<feColorMatrix type="matrix" values="0 0 0 0 1 0 0 0 0 1 0 0 0 0 1 0 0 0 1 0"/>
<feBlend mode="normal" in2="shape" result="effect1_innerShadow_677_53"/>
</filter>
<filter id="filter5_d_677_53" x="-12.5558" y="14.7893" width="66.5863" height="65.1581" filterUnits="userSpaceOnUse" color-interpolation-filters="sRGB">
<feFlood flood-opacity="0" result="BackgroundImageFix"/>
<feColorMatrix in="SourceAlpha" type="matrix" values="0 0 0 0 0 0 0 0 0 0 0 0 0 0 0 0 0 0 127 0" result="hardAlpha"/>
<feOffset/>
<feGaussianBlur stdDeviation="10"/>
<feComposite in2="hardAlpha" operator="out"/>
<feColorMatrix type="matrix" values="0 0 0 0 0 0 0 0 0 0 0 0 0 0 0 0 0 0 0.1 0"/>
<feBlend mode="normal" in2="BackgroundImageFix" result="effect1_dropShadow_677_53"/>
<feBlend mode="normal" in="SourceGraphic" in2="effect1_dropShadow_677_53" result="shape"/>
</filter>
<filter id="filter6_i_677_53" x="18.8896" y="44.2991" width="13.8317" height="15.208" filterUnits="userSpaceOnUse" color-interpolation-filters="sRGB">
<feFlood flood-opacity="0" result="BackgroundImageFix"/>
<feBlend mode="normal" in="SourceGraphic" in2="BackgroundImageFix" result="shape"/>
<feColorMatrix in="SourceAlpha" type="matrix" values="0 0 0 0 0 0 0 0 0 0 0 0 0 0 0 0 0 0 127 0" result="hardAlpha"/>
<feOffset dy="4"/>
<feGaussianBlur stdDeviation="1"/>
<feComposite in2="hardAlpha" operator="arithmetic" k2="-1" k3="1"/>
<feColorMatrix type="matrix" values="0 0 0 0 1 0 0 0 0 1 0 0 0 0 1 0 0 0 1 0"/>
<feBlend mode="normal" in2="shape" result="effect1_innerShadow_677_53"/>
</filter>
<filter id="filter7_i_677_53" x="8.94122" y="37.3831" width="11.0214" height="12.7759" filterUnits="userSpaceOnUse" color-interpolation-filters="sRGB">
<feFlood flood-opacity="0" result="BackgroundImageFix"/>
<feBlend mode="normal" in="SourceGraphic" in2="BackgroundImageFix" result="shape"/>
<feColorMatrix in="SourceAlpha" type="matrix" values="0 0 0 0 0 0 0 0 0 0 0 0 0 0 0 0 0 0 127 0" result="hardAlpha"/>
<feOffset dy="4"/>
<feGaussianBlur stdDeviation="1"/>
<feComposite in2="hardAlpha" operator="arithmetic" k2="-1" k3="1"/>
<feColorMatrix type="matrix" values="0 0 0 0 1 0 0 0 0 1 0 0 0 0 1 0 0 0 1 0"/>
<feBlend mode="normal" in2="shape" result="effect1_innerShadow_677_53"/>
</filter>
<filter id="filter8_d_677_53" x="-12.5558" y="-12.9474" width="66.5863" height="65.1581" filterUnits="userSpaceOnUse" color-interpolation-filters="sRGB">
<feFlood flood-opacity="0" result="BackgroundImageFix"/>
<feColorMatrix in="SourceAlpha" type="matrix" values="0 0 0 0 0 0 0 0 0 0 0 0 0 0 0 0 0 0 127 0" result="hardAlpha"/>
<feOffset/>
<feGaussianBlur stdDeviation="10"/>
<feComposite in2="hardAlpha" operator="out"/>
<feColorMatrix type="matrix" values="0 0 0 0 0 0 0 0 0 0 0 0 0 0 0 0 0 0 0.1 0"/>
<feBlend mode="normal" in2="BackgroundImageFix" result="effect1_dropShadow_677_53"/>
<feBlend mode="normal" in="SourceGraphic" in2="effect1_dropShadow_677_53" result="shape"/>
</filter>
<filter id="filter9_i_677_53" x="11.7952" y="11.4885" width="17.5054" height="18.1902" filterUnits="userSpaceOnUse" color-interpolation-filters="sRGB">
<feFlood flood-opacity="0" result="BackgroundImageFix"/>
<feBlend mode="normal" in="SourceGraphic" in2="BackgroundImageFix" result="shape"/>
<feColorMatrix in="SourceAlpha" type="matrix" values="0 0 0 0 0 0 0 0 0 0 0 0 0 0 0 0 0 0 127 0" result="hardAlpha"/>
<feOffset dy="4"/>
<feGaussianBlur stdDeviation="1"/>
<feComposite in2="hardAlpha" operator="arithmetic" k2="-1" k3="1"/>
<feColorMatrix type="matrix" values="0 0 0 0 1 0 0 0 0 1 0 0 0 0 1 0 0 0 1 0"/>
<feBlend mode="normal" in2="shape" result="effect1_innerShadow_677_53"/>
</filter>
<filter id="filter10_d_677_53" x="16.689" y="-12.9474" width="66.5863" height="65.1581" filterUnits="userSpaceOnUse" color-interpolation-filters="sRGB">
<feFlood flood-opacity="0" result="BackgroundImageFix"/>
<feColorMatrix in="SourceAlpha" type="matrix" values="0 0 0 0 0 0 0 0 0 0 0 0 0 0 0 0 0 0 127 0" result="hardAlpha"/>
<feOffset/>
<feGaussianBlur stdDeviation="10"/>
<feComposite in2="hardAlpha" operator="out"/>
<feColorMatrix type="matrix" values="0 0 0 0 0 0 0 0 0 0 0 0 0 0 0 0 0 0 0.1 0"/>
<feBlend mode="normal" in2="BackgroundImageFix" result="effect1_dropShadow_677_53"/>
<feBlend mode="normal" in="SourceGraphic" in2="effect1_dropShadow_677_53" result="shape"/>
</filter>
<filter id="filter11_i_677_53" x="49.2876" y="12.7321" width="9.52136" height="11.2456" filterUnits="userSpaceOnUse" color-interpolation-filters="sRGB">
<feFlood flood-opacity="0" result="BackgroundImageFix"/>
<feBlend mode="normal" in="SourceGraphic" in2="BackgroundImageFix" result="shape"/>
<feColorMatrix in="SourceAlpha" type="matrix" values="0 0 0 0 0 0 0 0 0 0 0 0 0 0 0 0 0 0 127 0" result="hardAlpha"/>
<feOffset dy="4"/>
<feGaussianBlur stdDeviation="1"/>
<feComposite in2="hardAlpha" operator="arithmetic" k2="-1" k3="1"/>
<feColorMatrix type="matrix" values="0 0 0 0 1 0 0 0 0 1 0 0 0 0 1 0 0 0 1 0"/>
<feBlend mode="normal" in2="shape" result="effect1_innerShadow_677_53"/>
</filter>
<filter id="filter12_i_677_53" x="38.6315" y="11.0385" width="13.0962" height="19.3491" filterUnits="userSpaceOnUse" color-interpolation-filters="sRGB">
<feFlood flood-opacity="0" result="BackgroundImageFix"/>
<feBlend mode="normal" in="SourceGraphic" in2="BackgroundImageFix" result="shape"/>
<feColorMatrix in="SourceAlpha" type="matrix" values="0 0 0 0 0 0 0 0 0 0 0 0 0 0 0 0 0 0 127 0" result="hardAlpha"/>
<feOffset dy="4"/>
<feGaussianBlur stdDeviation="1"/>
<feComposite in2="hardAlpha" operator="arithmetic" k2="-1" k3="1"/>
<feColorMatrix type="matrix" values="0 0 0 0 1 0 0 0 0 1 0 0 0 0 1 0 0 0 1 0"/>
<feBlend mode="normal" in2="shape" result="effect1_innerShadow_677_53"/>
</filter>
<linearGradient id="paint0_linear_677_53" x1="36.7555" y1="37.1666" x2="61.9505" y2="61.2696" gradientUnits="userSpaceOnUse">
<stop stop-color="#FB383C"/>
<stop offset="1" stop-color="#FBC438"/>
</linearGradient>
<radialGradient id="paint1_radial_677_53" cx="0" cy="0" r="1" gradientUnits="userSpaceOnUse" gradientTransform="translate(55.4025 42.552) rotate(89.3018) scale(4.65305 4.75035)">
<stop stop-color="white"/>
<stop offset="1" stop-color="#F0F0F0" stop-opacity="0.58"/>
</radialGradient>
<radialGradient id="paint2_radial_677_53" cx="0" cy="0" r="1" gradientUnits="userSpaceOnUse" gradientTransform="translate(52.0824 53.2555) rotate(134.173) scale(3.43735 0.114087)">
<stop stop-color="white"/>
<stop offset="1" stop-color="#C0C0C0" stop-opacity="0.84"/>
</radialGradient>
<radialGradient id="paint3_radial_677_53" cx="0" cy="0" r="1" gradientUnits="userSpaceOnUse" gradientTransform="translate(44.2845 42.1892) rotate(128.246) scale(3.58079 3.60773)">
<stop stop-color="white"/>
<stop offset="1" stop-color="#C1C1C1" stop-opacity="0.79"/>
</radialGradient>
<linearGradient id="paint4_linear_677_53" x1="33.964" y1="34.8522" x2="8.99812" y2="63.0408" gradientUnits="userSpaceOnUse">
<stop stop-color="#81FE00"/>
<stop offset="1" stop-color="#0093FE"/>
</linearGradient>
<radialGradient id="paint5_radial_677_53" cx="0" cy="0" r="1" gradientUnits="userSpaceOnUse" gradientTransform="translate(25.8054 50.903) rotate(90) scale(6.60398 6.91582)">
<stop stop-color="white"/>
<stop offset="1" stop-color="#CCCCCC"/>
</radialGradient>
<radialGradient id="paint6_radial_677_53" cx="0" cy="0" r="1" gradientUnits="userSpaceOnUse" gradientTransform="translate(14.4829 42.7368) rotate(-130.786) scale(7.35624 7.47778)">
<stop stop-color="#A0A09E"/>
<stop offset="1" stop-color="white"/>
</radialGradient>
<linearGradient id="paint7_linear_677_53" x1="8.97951" y1="7.05261" x2="31.1246" y2="33.3629" gradientUnits="userSpaceOnUse">
<stop/>
<stop offset="1" stop-color="#00FEC1"/>
</linearGradient>
<radialGradient id="paint8_radial_677_53" cx="0" cy="0" r="1" gradientUnits="userSpaceOnUse" gradientTransform="translate(20.7415 18.8085) rotate(90) scale(5.41388 6.66447)">
<stop stop-color="white"/>
<stop offset="1" stop-color="white" stop-opacity="0.72"/>
</radialGradient>
<radialGradient id="paint9_radial_677_53" cx="0" cy="0" r="1" gradientUnits="userSpaceOnUse" gradientTransform="translate(20.7421 14.8997) rotate(90) scale(3.41121 8.32712)">
<stop stop-color="white"/>
<stop offset="1" stop-color="white" stop-opacity="0.72"/>
</radialGradient>
<radialGradient id="paint10_radial_677_53" cx="0" cy="0" r="1" gradientUnits="userSpaceOnUse" gradientTransform="translate(20.548 25.5686) rotate(90) scale(2.11015 8.7527)">
<stop stop-color="white"/>
<stop offset="1" stop-color="white" stop-opacity="0.72"/>
</radialGradient>
<linearGradient id="paint11_linear_677_53" x1="60.3442" y1="7.05261" x2="38.1992" y2="33.3629" gradientUnits="userSpaceOnUse">
<stop stop-color="#008DF3"/>
<stop offset="1" stop-color="#00F2F3"/>
</linearGradient>
<radialGradient id="paint12_radial_677_53" cx="0" cy="0" r="1" gradientUnits="userSpaceOnUse" gradientTransform="translate(54.0484 17.3548) rotate(90) scale(4.62279 4.76066)">
<stop stop-color="white"/>
<stop offset="1" stop-color="#C1BFBF"/>
</radialGradient>
<radialGradient id="paint13_radial_677_53" cx="0" cy="0" r="1" gradientUnits="userSpaceOnUse" gradientTransform="translate(45.15 19.8131) rotate(75.2579) scale(7.82444 3.37592)">
<stop stop-color="white"/>
<stop offset="1" stop-color="#C6C6C6"/>
</radialGradient>
<clipPath id="clip0_677_53">
<rect width="150" height="67" fill="white"/>
</clipPath>
</defs>
</svg>
